PathFileType	4	(X/Y/Z)	C:\Users\WrightLab\Desktop\Jo\P1_boxCal18.trc
DataRate	CameraRate	NumFrames	NumMarkers	Units	OrigDataRate	OrigDataStartFrame	OrigNumFrames
100.00	100.00	       68	19	mm	100.00	490	       559
Frame#	Time	Headset_Front			Headset_Back			Headset_Left			Headset_Right			Left_Shoulder			Right_Shoulder			Sternum			C7			Left Elbow			Right Elbow			Left Wrist			Right Wrist			Left ASIS			Right ASIS			S2			Left Knee			Right Knee			Left Ankle			Right Ankle			
		X1	Y1	Z1	X2	Y2	Z2	X3	Y3	Z3	X4	Y4	Z4	X5	Y5	Z5	X6	Y6	Z6	X7	Y7	Z7	X8	Y8	Z8	X9	Y9	Z9	X10	Y10	Z10	X11	Y11	Z11	X12	Y12	Z12	X13	Y13	Z13	X14	Y14	Z14	X15	Y15	Z15	X16	Y16	Z16	X17	Y17	Z17	X18	Y18	Z18	X19	Y19	Z19	

490	4.890																																		-545.33795	831.08020	1882.05835																-361.47073	245.89807	2471.44092				
491	4.900																																		-555.21741	833.80750	1883.14038																-376.60138	243.89340	2477.72656				
492	4.910																																		-564.46710	835.60126	1887.10571																-392.68085	242.06308	2485.19214				
493	4.920																																		-573.24384	837.75208	1891.00415																-409.76239	238.86641	2490.72217				
494	4.930																																		-581.39734	840.69562	1890.55151																-426.22910	235.04317	2495.69556				
495	4.940																																		-589.60181	843.75507	1892.67883																-444.64780	230.65091	2500.57520				
496	4.950																																		-597.17773	845.47546	1899.80664																-463.09106	226.66080	2504.23389				
497	4.960																																		-604.21643	847.62238	1902.69336																-482.17194	222.70366	2508.20020				
498	4.970																																		-610.40625	850.24945	1901.99109																-501.63800	216.98642	2511.06226				
499	4.980																																		-616.61102	851.51202	1908.98828																-522.10699	211.72781	2512.20264				
500	4.990																																		-622.22577	854.27222	1910.79456																-542.74011	206.31104	2512.03516				
501	5.000																																		-627.22150	855.77698	1914.94690																						
502	5.010																																		-631.82831	858.91724	1917.00903																						
503	5.020																																		-635.57843	859.67273	1919.76709																						
504	5.030																																		-638.93091	861.72217	1920.84595																						
505	5.040																																		-641.77087	862.25995	1925.23926																						
506	5.050																																		-644.03851	864.11188	1926.22314																						
507	5.060																																		-645.57324	864.29785	1929.43579																						
508	5.070																																		-646.65259	864.79736	1931.79565																						
509	5.080																																		-646.98633	865.16785	1932.17920																						
510	5.090																																		-646.77600	864.41022	1936.12671																						
511	5.100																																		-645.69208	863.70215	1939.06604																						
512	5.110																																		-644.09637	863.67871	1941.64307																						
513	5.120																																		-641.80841	862.63110	1942.95886																						
514	5.130																																		-638.97034	861.00934	1948.07397																						
515	5.140																																		-635.20770	860.25049	1947.67297																						
516	5.150																																		-630.83368	859.12915	1948.66174																						
517	5.160																																		-626.10040	857.34918	1949.00012																						
518	5.170																																		-620.86310	855.35809	1952.56873																						
519	5.180																																		-615.02917	852.67761	1956.69482																						
520	5.190																																		-608.59387	850.85504	1957.13562																						
521	5.200																																		-601.82971	848.83142	1958.74854																						
522	5.210																																		-594.29626	845.80139	1960.55530																						
523	5.220																																		-586.57800	843.48352	1961.57813																						
524	5.230																																		-578.31409	839.90430	1966.19714																						
525	5.240																																		-569.34448	838.30872	1965.70386																						
526	5.250																																		-560.15094	835.10992	1969.19397																						
527	5.260																																		-550.12903	832.56354	1969.31384																						
528	5.270																																		-539.84229	830.72498	1968.42212																						
529	5.280																																		-528.87769	827.33392	1972.53430																						
530	5.290																																		-517.79944	826.28693	1976.25708																						
531	5.300																																		-505.83304	823.87097	1979.10449																						
532	5.310																																		-493.54599	821.98724	1984.46985																						
533	5.320																																		-479.53683	821.06934	1989.24316																						
534	5.330																																		-467.22995	820.64148	1992.99475																						
535	5.340																																		-455.02151	821.49548	2001.39587																						
536	5.350																																		-442.43338	822.63074	2009.20508																						
537	5.360																																		-430.93048	823.32703	2015.56812																						
538	5.370																																		-419.03613	825.14697	2026.25061																						
539	5.380																																		-407.99838	827.05750	2034.81909																						
540	5.390																																		-397.40268	828.97308	2043.58643																						
541	5.400																																		-387.58163	830.38208	2053.67261																						
542	5.410																																		-378.15115	831.72308	2064.17163																						
543	5.420																																		-369.34683	834.29651	2074.36816																						
544	5.430																																		-360.54050	835.51776	2086.15967																						
545	5.440																																		-353.18823	836.87616	2095.90283																						
546	5.450																																		-346.65829	838.51886	2106.57495																						
547	5.460																																		-340.50653	839.99652	2116.52881																						
548	5.470																																		-334.76224	841.81500	2126.59595																						
549	5.480																																		-329.63879	844.37012	2137.47729																						
550	5.490																																		-325.12387	846.35144	2145.51538																						
551	5.500																																		-321.51675	849.09540	2154.05908																						
552	5.510																																		-318.11813	851.47235	2162.64355																						
553	5.520																																		-314.17307	853.46277	2171.39502																						
554	5.530																																		-312.35535	855.87628	2179.86719																						
555	5.540																																		-310.37082	858.24292	2186.96191																						
556	5.550																																		-308.53259	859.91315	2195.20386																						
557	5.560																																		-308.12390	862.67621	2201.76025																						
